<?xml version="1.0" encoding="UTF-8" standalone="no"?>
<!DOCTYPE svg PUBLIC "-//W3C//DTD SVG 1.1//EN" "http://www.w3.org/Graphics/SVG/1.1/DTD/svg11.dtd">
<svg width="100%" height="100%" viewBox="0 0 388 388" version="1.1" xmlns="http://www.w3.org/2000/svg" xmlns:xlink="http://www.w3.org/1999/xlink" xml:space="preserve" style="fill-rule:evenodd;clip-rule:evenodd;stroke-linecap:round;stroke-linejoin:round;stroke-miterlimit:1.5;">
    <g id="Layer1" transform="matrix(0.965926,-0.258819,0.258819,0.965926,-44.0835,56.9507)">
        <g transform="matrix(0.987113,0,0,0.987113,3,2.5)">
            <circle cx="194" cy="194" r="194" style="fill:rgb(243,246,238);stroke:rgb(131,193,31);stroke-width:3px;"/>
        </g>
        <path d="M194.5,80.5C256.866,80.5 307.5,131.134 307.5,193.5C307.5,255.866 256.866,306.5 194.5,306.5C132.134,306.5 81.5,255.866 81.5,193.5C81.5,131.134 132.134,80.5 194.5,80.5ZM41.75,164C44.648,164 47,166.352 47,169.25C47,172.148 44.648,174.5 41.75,174.5C38.852,174.5 36.5,172.148 36.5,169.25C36.5,166.352 38.852,164 41.75,164ZM346.75,164C349.648,164 352,166.352 352,169.25C352,172.148 349.648,174.5 346.75,174.5C343.852,174.5 341.5,172.148 341.5,169.25C341.5,166.352 343.852,164 346.75,164Z" style="fill:rgb(131,193,31);"/>
        <path d="M178.23,333.526L184.692,333.795L184.203,345.533L184.379,345.54L193.397,334.158L200.519,334.455L191.382,345.524L200.907,363.184L193.829,362.889L187.343,350.508L183.819,354.765L183.498,362.458L177.036,362.189L178.23,333.526ZM153.333,343.143C153.814,340.816 154.603,338.815 155.698,337.139C156.793,335.464 158.082,334.12 159.565,333.109C161.047,332.097 162.668,331.429 164.427,331.104C166.187,330.779 167.972,330.804 169.781,331.178C171.534,331.54 173.045,332.235 174.315,333.261C175.586,334.288 176.594,335.387 177.34,336.56L173.039,339.759C172.457,338.95 171.839,338.283 171.184,337.758C170.528,337.233 169.712,336.87 168.736,336.668C167.759,336.466 166.804,336.485 165.87,336.727C164.937,336.968 164.074,337.411 163.282,338.056C162.489,338.701 161.798,339.546 161.207,340.592C160.616,341.638 160.175,342.865 159.884,344.273C159.284,347.174 159.437,349.549 160.342,351.399C161.248,353.249 162.735,354.388 164.803,354.815C165.952,355.053 167.005,355.031 167.962,354.75C168.918,354.468 169.819,354.026 170.663,353.421L173.36,357.978C171.897,359.113 170.34,359.87 168.689,360.247C167.039,360.625 165.337,360.632 163.585,360.27C161.775,359.895 160.13,359.233 158.649,358.283C157.168,357.333 155.949,356.129 154.992,354.673C154.035,353.218 153.398,351.521 153.08,349.583C152.762,347.645 152.846,345.498 153.333,343.143ZM217.84,347.574C217.326,345.254 217.233,343.104 217.56,341.124C217.887,339.143 218.534,337.385 219.501,335.849C220.467,334.313 221.715,333.03 223.245,332C224.774,330.97 226.484,330.245 228.374,329.826C230.35,329.389 232.143,329.382 233.755,329.806C235.366,330.23 236.735,330.813 237.86,331.555L235.247,336.235C234.414,335.729 233.577,335.373 232.735,335.169C231.894,334.965 230.872,334.996 229.669,335.263C228.58,335.504 227.631,335.932 226.821,336.548C226.011,337.163 225.362,337.93 224.875,338.849C224.388,339.768 224.089,340.826 223.978,342.022C223.868,343.219 223.968,344.518 224.279,345.922C224.92,348.814 226.068,350.911 227.724,352.211C229.379,353.512 231.524,353.87 234.159,353.286C234.732,353.16 235.274,352.964 235.787,352.7C236.299,352.437 236.695,352.123 236.975,351.761L235.909,346.95L231.27,347.978L230.127,342.823L240.351,340.557L243.207,353.444C242.414,354.612 241.275,355.705 239.788,356.726C238.302,357.746 236.571,358.476 234.595,358.913C232.704,359.332 230.868,359.416 229.085,359.166C227.301,358.915 225.661,358.324 224.163,357.395C222.665,356.465 221.367,355.182 220.268,353.548C219.17,351.914 218.361,349.922 217.84,347.574ZM143.45,347.372L135.242,344.324L131.217,350.104L125.03,347.806L143.433,324.038L150.733,326.75L149.16,356.768L142.725,354.378L143.45,347.372ZM238.475,328.017L244.497,325.538L250.611,340.388C251.684,342.992 252.825,344.647 254.036,345.354C255.247,346.061 256.599,346.107 258.09,345.493C259.582,344.879 260.523,343.889 260.912,342.523C261.301,341.157 260.96,339.173 259.888,336.569L253.774,321.718L259.551,319.339L265.414,333.58C267.246,338.028 267.692,341.635 266.753,344.401C265.814,347.167 263.635,349.253 260.218,350.66C256.773,352.079 253.723,352.145 251.068,350.859C248.413,349.573 246.17,346.705 244.339,342.257L238.475,328.017ZM283.792,330.095L276.321,334.662L278.377,341.399L272.745,344.841L265.44,315.683L272.085,311.621L294.707,331.416L288.85,334.996L283.792,330.095ZM118.753,311.5L127.341,316.245C128.65,316.969 129.81,317.736 130.821,318.545C131.831,319.355 132.619,320.234 133.184,321.183C133.748,322.132 134.048,323.136 134.084,324.194C134.119,325.252 133.803,326.385 133.136,327.592C132.824,328.156 132.429,328.675 131.95,329.148C131.471,329.62 130.93,330.008 130.326,330.312C129.723,330.615 129.045,330.81 128.293,330.898C127.541,330.985 126.756,330.92 125.938,330.702L125.853,330.856C127.466,332.183 128.465,333.573 128.852,335.027C129.238,336.48 128.964,338.055 128.027,339.749C127.318,341.033 126.458,341.998 125.446,342.646C124.435,343.294 123.32,343.675 122.1,343.788C120.881,343.902 119.6,343.781 118.255,343.423C116.911,343.066 115.559,342.511 114.198,341.759L104.878,336.61L118.753,311.5ZM143.974,342.169L144.274,339.465C144.39,337.974 144.55,336.406 144.754,334.761C144.958,333.116 145.142,331.526 145.305,329.991L145.14,329.93C144.279,331.237 143.399,332.576 142.498,333.947C141.598,335.318 140.705,336.606 139.82,337.81L138.241,340.04L143.974,342.169ZM116.162,337.114C119.268,338.83 121.453,338.546 122.716,336.261C123.326,335.157 123.384,334.142 122.89,333.216C122.397,332.289 121.367,331.394 119.801,330.528L116.604,328.762L112.965,335.347L116.162,337.114ZM280.026,326.466L278.086,324.558C276.986,323.546 275.852,322.451 274.686,321.274C273.519,320.096 272.382,318.968 271.277,317.891L271.127,317.983C271.622,319.468 272.13,320.988 272.651,322.543C273.172,324.098 273.632,325.596 274.032,327.037L274.808,329.656L280.026,326.466ZM308.996,319.313L298.084,315.058L295.382,317.381L302.123,325.222L297.218,329.438L278.516,307.685L286.356,300.944C287.513,299.949 288.693,299.128 289.896,298.481C291.1,297.833 292.304,297.445 293.51,297.318C294.715,297.19 295.913,297.369 297.104,297.854C298.295,298.339 299.445,299.227 300.554,300.517C301.931,302.118 302.713,303.737 302.902,305.374C303.091,307.011 302.815,308.592 302.076,310.117L314.501,314.58L308.996,319.313ZM121.475,326.225C122.861,326.991 124.021,327.272 124.955,327.068C125.889,326.863 126.619,326.286 127.144,325.336C127.669,324.386 127.724,323.528 127.309,322.763C126.894,321.997 126.019,321.246 124.684,320.508L121.988,319.018L118.817,324.757L121.475,326.225ZM89.501,289.296L87.172,291.137L80.051,282.127L75.529,285.701L81.586,293.365L77.34,296.72L71.283,289.057L66.105,293.149L73.499,302.504L69.218,305.887L57.814,291.458L80.321,273.67L91.453,287.754L91.36,287.827L95.345,291.661L92.609,298.186C92.152,299.253 91.705,300.278 91.268,301.262C90.83,302.245 90.373,303.281 89.897,304.369L90.023,304.491C91.092,303.972 92.12,303.486 93.107,303.031C94.094,302.576 95.112,302.1 96.16,301.603L102.607,298.646L107.49,303.344L88.431,310.652L81.354,318.009L76.693,313.524L83.77,306.168L89.501,289.296ZM320.87,297.072L315.12,303.676L319.108,309.481L314.774,314.459L299.032,288.852L304.146,282.978L331.676,295.046L327.169,300.223L320.87,297.072ZM292.026,313.477L294.561,311.297C295.852,310.188 296.602,309.07 296.811,307.941C297.021,306.813 296.667,305.715 295.749,304.647C294.831,303.58 293.852,303.126 292.81,303.287C291.768,303.448 290.602,304.083 289.312,305.192L286.776,307.372L292.026,313.477ZM316.187,294.745L313.762,293.509C312.408,292.875 310.998,292.172 309.531,291.4C308.064,290.628 306.641,289.895 305.262,289.2L305.146,289.333C306.066,290.6 307.008,291.897 307.973,293.223C308.938,294.549 309.827,295.839 310.642,297.093L312.171,299.357L316.187,294.745ZM320.893,258.24L320.891,258.239L329.454,237.688L334.49,239.786L331.461,247.056L352.906,255.992L350.401,262.003L328.956,253.067L325.927,260.337L321.188,258.363L345.301,273.316L341.799,278.962L325.704,277.783L318.91,276.883L318.818,277.033C320.241,277.743 321.776,278.496 323.422,279.293C325.068,280.089 326.614,280.936 328.06,281.832L336.698,287.189L333.451,292.424L309.071,277.305L312.572,271.658L328.63,272.815L335.499,273.761L335.591,273.611C334.218,272.932 332.683,272.179 330.987,271.351C329.291,270.524 327.72,269.662 326.274,268.765L317.674,263.432L320.893,258.24ZM68,252.259L71.233,258.063L62.419,271.535L58.255,277.079L58.34,277.232C59.601,276.362 61.006,275.387 62.553,274.307C64.1,273.226 65.617,272.272 67.103,271.444L75.944,266.519L78.942,271.901L53.88,285.862L50.647,280.058L59.499,266.564L63.587,261.063L63.501,260.91C62.189,261.809 60.784,262.784 59.289,263.836C57.793,264.887 56.301,265.827 54.815,266.655L45.936,271.601L42.938,266.22L68,252.259ZM35.826,249.185C35.195,247.354 34.944,245.571 35.074,243.835C35.204,242.099 35.692,240.48 36.539,238.977C37.386,237.475 38.58,236.124 40.121,234.925C41.662,233.726 43.542,232.744 45.76,231.978C47.978,231.213 50.057,230.829 51.996,230.827C53.935,230.825 55.68,231.161 57.231,231.836C58.783,232.511 60.132,233.496 61.277,234.792C62.423,236.088 63.311,237.651 63.943,239.481C64.574,241.311 64.839,243.089 64.737,244.816C64.634,246.542 64.174,248.152 63.355,249.645C62.535,251.138 61.362,252.481 59.835,253.675C58.308,254.87 56.449,255.845 54.258,256.601C52.04,257.367 49.955,257.753 48.002,257.759C46.049,257.766 44.276,257.439 42.683,256.779C41.09,256.119 39.707,255.145 38.533,253.859C37.36,252.573 36.458,251.015 35.826,249.185ZM41.108,247.361C41.75,249.219 43.054,250.414 45.022,250.945C46.989,251.476 49.346,251.268 52.091,250.32C54.808,249.383 56.743,248.11 57.895,246.502C59.046,244.894 59.302,243.162 58.661,241.304C58.019,239.446 56.75,238.239 54.851,237.684C52.953,237.129 50.645,237.321 47.928,238.259C45.183,239.206 43.2,240.496 41.978,242.127C40.757,243.759 40.467,245.504 41.108,247.361ZM329.412,237.355L333.792,219.946L339.083,221.277L336.281,232.414L341.871,233.82L344.254,224.348L349.503,225.668L347.119,235.141L353.52,236.751L356.429,225.188L361.72,226.519L357.233,244.355L329.412,237.355ZM55.355,200.813L56.329,207.608L44.247,214.183L39.524,216.593L39.549,216.767L44.758,217.755L58.181,220.544L59.148,227.295L30.75,231.362L29.895,225.395L40.305,223.904C41.002,223.804 41.775,223.723 42.626,223.661C43.476,223.598 44.336,223.549 45.205,223.514C46.074,223.478 46.929,223.445 47.769,223.413C48.609,223.382 49.383,223.36 50.093,223.347L50.068,223.173L43.154,221.763L31.511,218.985L31.143,216.415L41.539,210.482L47.791,207.275L47.766,207.101C47.082,207.288 46.332,207.484 45.517,207.69C44.702,207.895 43.871,208.096 43.025,208.291C42.179,208.486 41.339,208.673 40.505,208.852C39.671,209.03 38.906,209.17 38.209,209.269L27.799,210.76L26.957,204.88L55.355,200.813ZM334.184,217.881L336.052,200.026L341.479,200.594L340.284,212.016L346.016,212.616L347.033,202.901L352.415,203.464L351.399,213.179L357.963,213.866L359.204,202.006L364.63,202.574L362.716,220.866L334.184,217.881ZM338.466,109.846L341.325,115.648L320.486,125.918L325.505,136.101L320.611,138.513L312.733,122.528L338.466,109.846ZM42.187,129.421L45.008,123.552L59.483,130.51C62.02,131.73 63.976,132.198 65.349,131.914C66.722,131.63 67.758,130.761 68.457,129.307C69.156,127.853 69.194,126.488 68.571,125.212C67.948,123.936 66.367,122.688 63.829,121.468L49.354,114.51L52.061,108.879L65.941,115.551C70.277,117.635 73.02,120.02 74.17,122.704C75.321,125.389 75.095,128.397 73.494,131.728C71.88,135.086 69.656,137.174 66.821,137.992C63.987,138.81 60.402,138.177 56.066,136.093L42.187,129.421ZM311.699,108.625L306.467,101.605L299.947,104.269L296.003,98.977L324.369,89.03L329.023,95.275L311.385,119.615L307.283,114.112L311.699,108.625ZM58.859,97.96L62.952,92.727L78.789,95.618L85.515,97.304L85.623,97.165C84.332,96.341 82.888,95.426 81.292,94.419C79.695,93.413 78.227,92.385 76.887,91.337L68.916,85.102L72.711,80.25L95.308,97.925L91.214,103.158L75.342,100.24L68.686,98.608L68.577,98.747C69.915,99.607 71.359,100.523 72.909,101.493C74.459,102.463 75.904,103.473 77.244,104.521L85.25,110.783L81.455,115.635L58.859,97.96ZM314.968,104.543L316.69,102.436C317.597,101.248 318.583,100.019 319.649,98.749C320.715,97.479 321.733,96.244 322.705,95.044L322.6,94.903C321.166,95.533 319.699,96.178 318.198,96.839C316.697,97.501 315.248,98.096 313.85,98.626L311.313,99.639L314.968,104.543ZM296.051,60.376L301.01,64.797L297.107,80.416L294.992,87.02L295.124,87.137C296.029,85.901 297.036,84.518 298.143,82.99C299.25,81.462 300.369,80.063 301.501,78.793L308.236,71.239L312.834,75.338L293.743,96.752L288.784,92.331L292.716,76.679L294.772,70.141L294.641,70.024C293.696,71.304 292.69,72.686 291.622,74.171C290.554,75.655 289.454,77.032 288.322,78.302L281.558,85.889L276.96,81.79L296.051,60.376ZM89.98,83.141C88.451,81.323 87.367,79.465 86.729,77.568C86.092,75.67 85.835,73.826 85.958,72.036C86.081,70.246 86.56,68.559 87.394,66.976C88.228,65.393 89.352,64.007 90.767,62.817C92.136,61.665 93.617,60.908 95.21,60.546C96.802,60.184 98.29,60.073 99.673,60.213L99.523,65.572C98.527,65.527 97.62,65.6 96.802,65.79C95.985,65.979 95.194,66.395 94.431,67.037C93.667,67.679 93.092,68.441 92.703,69.324C92.315,70.206 92.128,71.158 92.144,72.18C92.16,73.201 92.396,74.268 92.852,75.379C93.308,76.491 93.998,77.597 94.923,78.697C96.83,80.964 98.79,82.315 100.803,82.749C102.817,83.183 104.631,82.72 106.248,81.36C107.146,80.605 107.78,79.765 108.152,78.839C108.523,77.914 108.733,76.932 108.781,75.896L114.029,76.598C114.015,78.45 113.645,80.141 112.919,81.671C112.194,83.201 111.147,84.542 109.777,85.694C108.363,86.883 106.824,87.765 105.161,88.34C103.498,88.915 101.799,89.127 100.063,88.977C98.327,88.827 96.6,88.277 94.881,87.328C93.162,86.378 91.528,84.982 89.98,83.141ZM129.159,72.572C127.469,73.517 125.758,74.078 124.026,74.255C122.294,74.433 120.614,74.238 118.986,73.669C117.358,73.1 115.818,72.163 114.366,70.857C112.914,69.551 111.616,67.874 110.471,65.825C109.327,63.776 108.583,61.798 108.24,59.89C107.896,57.982 107.92,56.205 108.31,54.558C108.701,52.912 109.433,51.411 110.507,50.055C111.581,48.699 112.963,47.549 114.653,46.605C116.343,45.661 118.047,45.087 119.765,44.884C121.482,44.68 123.148,44.85 124.762,45.394C126.376,45.937 127.905,46.855 129.35,48.148C130.794,49.441 132.082,51.099 133.212,53.122C134.356,55.171 135.104,57.156 135.455,59.076C135.805,60.997 135.796,62.8 135.427,64.485C135.057,66.169 134.343,67.703 133.283,69.084C132.224,70.465 130.849,71.628 129.159,72.572ZM260.974,72.576C259.283,71.633 257.908,70.471 256.847,69.091C255.787,67.71 255.072,66.177 254.701,64.493C254.331,62.808 254.32,61.006 254.669,59.084C255.019,57.163 255.765,55.178 256.908,53.128C258.051,51.079 259.345,49.407 260.788,48.113C262.232,46.819 263.757,45.907 265.364,45.375C266.97,44.844 268.632,44.679 270.35,44.881C272.067,45.084 273.772,45.656 275.462,46.599C277.153,47.542 278.536,48.691 279.611,50.046C280.685,51.402 281.415,52.909 281.8,54.567C282.185,56.226 282.206,58.01 281.864,59.918C281.521,61.826 280.786,63.792 279.657,65.816C278.514,67.866 277.217,69.544 275.766,70.851C274.315,72.157 272.776,73.096 271.148,73.666C269.52,74.236 267.84,74.432 266.108,74.256C264.376,74.079 262.665,73.519 260.974,72.576ZM263.696,67.696C265.413,68.653 267.181,68.674 269.002,67.758C270.822,66.842 272.44,65.116 273.855,62.58C275.255,60.069 275.848,57.831 275.635,55.865C275.422,53.899 274.457,52.437 272.74,51.48C271.024,50.522 269.273,50.469 267.488,51.321C265.703,52.173 264.111,53.854 262.711,56.365C261.296,58.901 260.678,61.184 260.855,63.214C261.033,65.245 261.98,66.739 263.696,67.696ZM126.434,67.694C128.149,66.736 129.095,65.241 129.272,63.211C129.448,61.18 128.828,58.897 127.412,56.362C126.01,53.853 124.416,52.172 122.63,51.322C120.845,50.471 119.094,50.525 117.378,51.484C115.663,52.442 114.699,53.905 114.487,55.871C114.275,57.837 114.87,60.075 116.272,62.585C117.688,65.12 119.307,66.845 121.128,67.76C122.949,68.674 124.718,68.652 126.434,67.694ZM248.324,35.042L254.4,37.258L244.573,64.21L238.496,61.994L248.324,35.042ZM137.121,36.317L143.484,34.403L154.752,45.902L159.273,51.158L159.442,51.108C158.862,49.689 158.211,48.109 157.487,46.366C156.764,44.623 156.158,42.937 155.668,41.307L152.754,31.616L158.653,29.842L166.914,57.315L160.551,59.228L149.27,47.688L144.774,42.515L144.606,42.566C145.202,44.041 145.854,45.621 146.56,47.308C147.266,48.995 147.864,50.653 148.354,52.282L151.281,62.016L145.382,63.789L137.121,36.317ZM225.177,34.497L217.477,32.841L218.624,27.507L240.39,32.188L239.243,37.522L231.543,35.866L226.658,58.579L220.292,57.209L225.177,34.497ZM171.53,27.455L179.603,26.852C181.797,26.689 183.793,26.819 185.589,27.244C187.386,27.669 188.956,28.412 190.3,29.474C191.644,30.535 192.719,31.933 193.525,33.667C194.331,35.401 194.826,37.497 195.009,39.954C195.193,42.411 195.016,44.572 194.478,46.436C193.941,48.3 193.102,49.87 191.962,51.146C190.821,52.422 189.418,53.417 187.75,54.13C186.082,54.843 184.196,55.277 182.089,55.435L173.665,56.063L171.53,27.455ZM203.695,26.368L210.146,26.841L208.047,55.452L201.597,54.979L203.695,26.368ZM180.954,50.269C182.182,50.177 183.282,49.933 184.253,49.537C185.223,49.141 186.033,48.559 186.681,47.79C187.33,47.021 187.808,46.036 188.115,44.837C188.423,43.637 188.512,42.175 188.384,40.449C188.257,38.752 187.953,37.341 187.472,36.215C186.991,35.089 186.374,34.208 185.62,33.573C184.867,32.938 183.982,32.512 182.966,32.293C181.949,32.075 180.827,32.012 179.598,32.103L178.37,32.195L179.725,50.361L180.954,50.269Z"/>
        <path d="M236.466,247.395C237.829,248.564 239.339,249.518 240.994,250.258C242.65,250.998 244.276,251.369 245.873,251.369C247.665,251.369 248.999,251.037 249.876,250.375C250.752,249.713 251.19,248.817 251.19,247.687C251.19,247.103 251.064,246.597 250.811,246.168C250.557,245.74 250.187,245.36 249.7,245.029C249.214,244.698 248.629,244.386 247.948,244.094C247.266,243.802 246.516,243.481 245.698,243.13L240.731,241.026C239.758,240.637 238.813,240.131 237.898,239.507C236.982,238.884 236.164,238.154 235.444,237.316C234.723,236.479 234.148,235.505 233.72,234.395C233.291,233.284 233.077,232.028 233.077,230.626C233.077,229.068 233.408,227.597 234.07,226.214C234.733,224.832 235.668,223.624 236.875,222.592C238.083,221.56 239.514,220.751 241.17,220.167C242.825,219.583 244.646,219.29 246.633,219.29C248.853,219.29 251.044,219.719 253.206,220.576C255.368,221.433 257.267,222.679 258.903,224.315L254.521,229.749C253.274,228.776 252.028,228.026 250.781,227.5C249.535,226.974 248.152,226.711 246.633,226.711C245.153,226.711 243.974,227.013 243.098,227.617C242.221,228.221 241.783,229.068 241.783,230.158C241.783,230.743 241.929,231.239 242.221,231.648C242.514,232.057 242.923,232.428 243.448,232.759C243.974,233.09 244.588,233.401 245.289,233.693C245.99,233.986 246.75,234.307 247.568,234.658L252.476,236.644C254.813,237.579 256.654,238.865 257.998,240.501C259.341,242.137 260.013,244.299 260.013,246.986C260.013,248.583 259.692,250.093 259.049,251.515C258.407,252.936 257.472,254.183 256.245,255.254C255.018,256.325 253.508,257.182 251.716,257.825C249.924,258.468 247.899,258.789 245.64,258.789C243.147,258.789 240.663,258.331 238.19,257.416C235.716,256.501 233.506,255.128 231.558,253.297L236.466,247.395ZM146.718,258.088L135.499,258.088L135.499,219.992L146.25,219.992C149.172,219.992 151.801,220.362 154.138,221.102C156.475,221.842 158.482,222.981 160.157,224.52C161.832,226.059 163.117,228.016 164.013,230.392C164.909,232.768 165.357,235.592 165.357,238.865C165.357,242.137 164.909,244.98 164.013,247.395C163.117,249.81 161.851,251.807 160.215,253.384C158.579,254.962 156.622,256.14 154.343,256.919C152.064,257.698 149.522,258.088 146.718,258.088ZM201.35,258.088L192.235,258.088L189.897,249.031L178.27,249.031L175.933,258.088L167.168,258.088L179.088,219.992L189.43,219.992L201.35,258.088ZM219.58,258.088L210.991,258.088L210.991,244.532L199.48,219.992L208.712,219.992L212.101,228.756C212.646,230.197 213.162,231.59 213.649,232.934C214.136,234.278 214.652,235.69 215.198,237.17L215.431,237.17C215.977,235.69 216.512,234.278 217.038,232.934C217.564,231.59 218.1,230.197 218.645,228.756L222.092,219.992L231.091,219.992L219.58,244.532L219.58,258.088ZM145.724,251.135C147.36,251.135 148.841,250.921 150.165,250.492C151.489,250.064 152.619,249.372 153.554,248.418C154.489,247.463 155.219,246.207 155.745,244.649C156.271,243.091 156.534,241.163 156.534,238.865C156.534,236.605 156.271,234.706 155.745,233.168C155.219,231.629 154.489,230.402 153.554,229.487C152.619,228.571 151.489,227.919 150.165,227.529C148.841,227.14 147.36,226.945 145.724,226.945L144.088,226.945L144.088,251.135L145.724,251.135ZM184.171,226.536L183.938,226.536C183.47,228.562 182.993,230.636 182.506,232.759C182.019,234.882 181.503,236.897 180.958,238.806L180.023,242.312L188.145,242.312L187.268,238.806C186.723,236.897 186.197,234.872 185.69,232.729C185.184,230.587 184.678,228.523 184.171,226.536ZM172.22,193.881L187.545,193.881L187.545,209.206L135.515,209.206L135.515,193.881L153.288,193.881L153.288,146.616L137.962,146.616L137.962,134.896C142.427,134.037 146.205,133.007 149.295,131.805C152.386,130.603 155.391,129.143 158.311,127.426L172.22,127.426L172.22,193.881ZM250.008,175.206L259.409,175.206L259.409,189.631L250.008,189.631L250.008,209.206L232.364,209.206L232.364,189.631L196.947,189.631L196.947,176.623L226.826,127.426L250.008,127.426L250.008,175.206ZM233.136,143.653L232.621,143.653C231.591,145.886 230.518,148.161 229.402,150.479C228.285,152.797 227.126,155.116 225.924,157.434L215.106,175.206L232.364,175.206L232.364,161.941C232.364,159.28 232.449,156.21 232.621,152.733C232.793,149.256 232.965,146.229 233.136,143.653Z" style="fill:white;"/>
    </g>
</svg>
